<?xml version="1.0" encoding="UTF-8"?>
<!-- Generator: visioncortex VTracer 0.6.12 -->
<svg version="1.1" xmlns="http://www.w3.org/2000/svg" width="300" height="300">
<path d="M0 0 C99 0 198 0 300 0 C300 99 300 198 300 300 C201 300 102 300 0 300 C0 201 0 102 0 0 Z " fill="#FEFEFE" transform="translate(0,0)"/>
<path d="M0 0 C0.08636719 0.60585937 0.17273438 1.21171875 0.26171875 1.8359375 C1.88678965 11.5267273 5.07832156 19.28765725 12.8828125 25.53125 C20.80751528 31.02882979 28.39050886 32.90882531 38 32 C47.97476143 30.05498723 55.43726598 25.27375928 61.4375 17.0234375 C64.3808772 11.764315 65.17519423 5.90387289 66 0 C71.76616436 0.62066352 77.25210324 1.66293081 82.875 3.06640625 C83.27996704 3.16558098 83.27996704 3.16558098 85.3293457 3.66746521 C87.88729216 4.29491548 90.44364622 4.92859563 93 5.5625 C94.74599181 5.99195113 96.49208469 6.42099155 98.23828125 6.84960938 C102.49337023 7.89499715 106.74704378 8.9459706 111 10 C110.61447132 26.18593565 110.11377808 42.34177321 109.0625 58.5 C107.82908808 77.65416161 106.93517254 96.82896288 106 116 C58.15 116 10.3 116 -39 116 C-40.24083062 99.24878667 -41.46777876 82.51447453 -42.43261719 65.74731445 C-42.56098833 63.538777 -42.69283085 61.33043862 -42.828125 59.12231445 C-43.83230335 42.73079265 -44.1821489 26.42155143 -44 10 C-38.53934574 8.5680968 -33.07669636 7.14417157 -27.61206055 5.72753906 C-25.75407107 5.24469188 -23.89664146 4.75968491 -22.03979492 4.27246094 C-19.36782436 3.57175686 -16.6939243 2.87889241 -14.01953125 2.1875 C-13.19226028 1.96876221 -12.36498932 1.75002441 -11.51264954 1.5246582 C-7.59200847 0.51887915 -4.08597742 -0.28850679 0 0 Z " fill="#F9BDA6" transform="translate(116,156)"/>
<path d="M0 0 C7.77629772 5.43153619 13.98902499 12.51643504 16.796875 21.6796875 C17.740876 27.12305165 17.97147058 32.39768725 18 37.90234375 C18.00570007 38.76605087 18.01140015 39.629758 18.01727295 40.51963806 C18.02667069 42.33575229 18.03323599 44.15188317 18.03710938 45.96801758 C18.0468583 48.73744255 18.07794807 51.50613797 18.109375 54.27539062 C18.11590226 56.04687063 18.12115382 57.81835589 18.125 59.58984375 C18.1373468 60.41186783 18.1496936 61.23389191 18.16241455 62.08082581 C18.13797141 68.41565885 16.69456899 72.47425935 12.484375 77.3671875 C7.31040609 81.81920726 3.21956491 83.05957495 -3.578125 82.8671875 C-4.82335937 82.84011719 -6.06859375 82.81304687 -7.3515625 82.78515625 C-8.29257813 82.75035156 -9.23359375 82.71554688 -10.203125 82.6796875 C-10.18217773 83.23841553 -10.16123047 83.79714355 -10.13964844 84.37280273 C-10.05546206 86.95407423 -10.00414807 89.53505574 -9.953125 92.1171875 C-9.93636719 92.55643555 -9.93636719 92.55643555 -9.8515625 94.77929688 C-9.74120408 102.25607987 -11.49973363 107.88206629 -15.84375 113.984375 C-21.98529968 119.97685794 -27.1311174 121.80043895 -35.703125 122.1171875 C-42.63772984 121.91699683 -47.05332892 120.61313395 -52.13671875 115.87890625 C-58.02979206 109.56927475 -60.57521955 103.82772499 -60.59130859 95.17480469 C-60.59656555 94.45993393 -60.60182251 93.74506317 -60.60723877 93.00852966 C-60.62035349 90.66431281 -60.61172773 88.32078531 -60.6015625 85.9765625 C-60.60358659 84.33139924 -60.6065008 82.68623687 -60.61026001 81.04107666 C-60.61467259 77.59809807 -60.60829017 74.15535361 -60.59423828 70.71240234 C-60.57720094 66.32701188 -60.58695951 61.94217456 -60.60495567 57.55680466 C-60.61586871 54.15930116 -60.61231205 50.76192568 -60.6045723 47.36441803 C-60.60258818 45.7490965 -60.60496578 44.13376289 -60.61201096 42.51845551 C-60.6631723 27.48506813 -58.92164669 15.94866576 -48.28515625 4.640625 C-35.2456552 -7.59204066 -15.2068876 -9.11334753 0 0 Z " fill="#F1EB96" transform="translate(184.203125,58.3203125)"/>
<path d="M0 0 C0.09922625 5.01703179 0.17163587 10.03348652 0.21972656 15.05126953 C0.23978369 16.75644894 0.26703657 18.46156006 0.30175781 20.16650391 C0.35053861 22.62419524 0.37302719 25.08097366 0.390625 27.5390625 C0.41127014 28.29555084 0.43191528 29.05203918 0.45318604 29.83145142 C0.45534849 34.98697063 -0.46511758 38.00177923 -4 42 C-8.47340846 44.98477643 -12.55101181 45.46312679 -17.8046875 45.51171875 C-18.5286673 45.52966995 -19.25264709 45.54762115 -19.99856567 45.56611633 C-22.29065277 45.61991138 -24.58253541 45.65401402 -26.875 45.6875 C-28.43752827 45.72070049 -30.00002966 45.75519266 -31.5625 45.79101562 C-35.37485169 45.87561923 -39.187146 45.94257559 -43 46 C-43.33 47.32 -43.66 48.64 -44 50 C-38.39 50 -32.78 50 -27 50 C-26.20311997 71.35638469 -26.20311997 71.35638469 -32 78 C-36.52647798 81.95766393 -41.07268792 84.32380174 -47.125 84.6875 C-53.8303522 84.23486241 -58.56118893 80.85147214 -62.9375 75.9375 C-66.27290827 71.18707004 -66.13945114 67.06869507 -66.09765625 61.390625 C-66.0962413 60.66381531 -66.09482635 59.93700562 -66.09336853 59.18817139 C-66.08778792 56.87540506 -66.07523904 54.56273688 -66.0625 52.25 C-66.05748249 50.67838682 -66.05292002 49.10677211 -66.04882812 47.53515625 C-66.03782485 43.69006657 -66.02057361 39.8450499 -66 36 C-65.51897827 36.00942627 -65.51897827 36.00942627 -63.0847168 36.05712891 C-61.82312744 36.07179199 -60.56153809 36.08645508 -59.26171875 36.1015625 C-58.01092529 36.12041504 -56.76013184 36.13926758 -55.47143555 36.15869141 C-50.660223 35.93875413 -48.66319287 35.09336287 -45 32 C-42.58224774 28.5345551 -41.90834554 25.74059399 -41.625 21.625 C-41.09006246 15.28064083 -38.03801551 10.93611473 -33.5 6.625 C-28.07470504 3.09855828 -23.43412452 2.67611678 -17.125 2.5 C-11.38268674 2.33811057 -5.44605595 0 0 0 Z " fill="#FCFCFC" transform="translate(196,91)"/>
<path d="M0 0 C0.33 0 0.66 0 1 0 C1.14954495 6.18886008 1.25777719 12.37664352 1.32958984 18.56689453 C1.35955945 20.6676671 1.4003503 22.76831673 1.45263672 24.86865234 C2.01777667 48.17236434 2.01777667 48.17236434 -5 57 C-5.99 57.66 -6.98 58.32 -8 59 C-8.226875 57.72125 -8.45375 56.4425 -8.6875 55.125 C-10.67728846 46.33676763 -14.65739094 38.43406086 -22 33 C-33.31867577 26.4345739 -44.27056838 23.93116582 -57.21484375 26.68359375 C-67.64213844 30.2081071 -75.12287421 36.59258395 -80.22265625 46.3359375 C-83.54352608 53.50139857 -84.17000042 59.85381073 -84.31640625 67.67578125 C-84.33718735 68.6009404 -84.35796844 69.52609955 -84.37937927 70.47929382 C-84.4445656 73.42362307 -84.50361558 76.36803865 -84.5625 79.3125 C-84.60571464 81.31315983 -84.64932986 83.31381106 -84.69335938 85.31445312 C-84.8002152 90.20954779 -84.90156919 95.10472897 -85 100 C-87.64 100 -90.28 100 -93 100 C-93.10214499 93.36561363 -93.17177544 86.73143303 -93.21972656 80.09643555 C-93.23973464 77.84342877 -93.26694991 75.59047321 -93.30175781 73.33764648 C-93.35075342 70.08304133 -93.37307756 66.82912783 -93.390625 63.57421875 C-93.41127014 62.58105148 -93.43191528 61.58788422 -93.45318604 60.56462097 C-93.45726876 47.58952818 -87.98852229 37.24805969 -79.375 27.8125 C-69.22952664 18.07517787 -56.90573389 15.83590717 -43.4375 15.625 C-27.09069227 15.12114304 -11.8808218 12.22946894 0 0 Z " fill="#F2EC96" transform="translate(209,28)"/>
<path d="M0 0 C7.77629772 5.43153619 13.98902499 12.51643504 16.796875 21.6796875 C17.740876 27.12305165 17.97147058 32.39768725 18 37.90234375 C18.00570007 38.76605087 18.01140015 39.629758 18.01727295 40.51963806 C18.02667069 42.33575229 18.03323599 44.15188317 18.03710938 45.96801758 C18.0468583 48.73744255 18.07794807 51.50613797 18.109375 54.27539062 C18.11590226 56.04687063 18.12115382 57.81835589 18.125 59.58984375 C18.1373468 60.41186783 18.1496936 61.23389191 18.16241455 62.08082581 C18.13797141 68.41565885 16.69456899 72.47425935 12.484375 77.3671875 C7.31040609 81.81920726 3.21956491 83.05957495 -3.578125 82.8671875 C-4.82335937 82.84011719 -6.06859375 82.81304687 -7.3515625 82.78515625 C-8.29257813 82.75035156 -9.23359375 82.71554688 -10.203125 82.6796875 C-10.18217773 83.23841553 -10.16123047 83.79714355 -10.13964844 84.37280273 C-10.05546206 86.95407423 -10.00414807 89.53505574 -9.953125 92.1171875 C-9.93636719 92.55643555 -9.93636719 92.55643555 -9.8515625 94.77929688 C-9.74120408 102.25607987 -11.49973363 107.88206629 -15.84375 113.984375 C-21.98529968 119.97685794 -27.1311174 121.80043895 -35.703125 122.1171875 C-42.63772984 121.91699683 -47.05332892 120.61313395 -52.13671875 115.87890625 C-58.02979206 109.56927475 -60.57521955 103.82772499 -60.59130859 95.17480469 C-60.59656555 94.45993393 -60.60182251 93.74506317 -60.60723877 93.00852966 C-60.62035349 90.66431281 -60.61172773 88.32078531 -60.6015625 85.9765625 C-60.60358659 84.33139924 -60.6065008 82.68623687 -60.61026001 81.04107666 C-60.61467259 77.59809807 -60.60829017 74.15535361 -60.59423828 70.71240234 C-60.57720094 66.32701188 -60.58695951 61.94217456 -60.60495567 57.55680466 C-60.61586871 54.15930116 -60.61231205 50.76192568 -60.6045723 47.36441803 C-60.60258818 45.7490965 -60.60496578 44.13376289 -60.61201096 42.51845551 C-60.6631723 27.48506813 -58.92164669 15.94866576 -48.28515625 4.640625 C-35.2456552 -7.59204066 -15.2068876 -9.11334753 0 0 Z M-47.453125 11.9296875 C-54.84229975 21.41780794 -54.78656718 31.54149341 -54.69921875 43.03515625 C-54.69937402 44.70803388 -54.70086757 46.38091187 -54.70362854 48.05378723 C-54.70500605 51.54277644 -54.69256001 55.0313513 -54.66967773 58.52026367 C-54.64122845 62.97884703 -54.64405701 67.43674646 -54.65676785 71.89538097 C-54.66373957 75.34334601 -54.65591984 78.79115447 -54.64351082 82.2390995 C-54.63901549 83.88284008 -54.63864263 85.52659757 -54.64257622 87.17033958 C-54.64550497 89.4696206 -54.62890601 91.76797516 -54.60717773 94.06713867 C-54.60177475 95.37156418 -54.59637177 96.67598969 -54.59080505 98.01994324 C-54.07733339 102.86717473 -52.7915434 106.86277271 -49.51953125 110.60546875 C-48.94074219 111.06308594 -48.36195313 111.52070313 -47.765625 111.9921875 C-47.47751953 112.22744141 -47.47751953 112.22744141 -46.01953125 113.41796875 C-40.85330241 117.00655351 -36.40872829 117.65624882 -30.203125 116.6796875 C-24.58540292 114.61470717 -20.23369195 111.56748383 -17.078125 106.4296875 C-13.81676742 98.99150355 -14.90806674 90.58724887 -15.203125 82.6796875 C-20.813125 82.6796875 -26.423125 82.6796875 -32.203125 82.6796875 C-31.873125 81.3596875 -31.543125 80.0396875 -31.203125 78.6796875 C-30.24011475 78.6703418 -29.27710449 78.66099609 -28.28491211 78.65136719 C-24.68565927 78.61126219 -21.08724293 78.5454493 -17.48852539 78.47216797 C-15.93590097 78.4440764 -14.38313667 78.42280343 -12.83032227 78.40869141 C-10.58798221 78.38709584 -8.3473029 78.34036799 -6.10546875 78.2890625 C-5.41976303 78.28783386 -4.73405731 78.28660522 -4.02757263 78.28533936 C1.10608379 78.13199886 4.89560822 76.97032994 8.796875 73.6796875 C12.65376335 69.13712611 13.378644 64.56087887 13.2578125 58.69140625 C13.25689606 57.94816605 13.25597961 57.20492584 13.2550354 56.43916321 C13.24902773 54.87514822 13.23336748 53.31114321 13.20849609 51.74731445 C13.17213112 49.38383365 13.16747656 47.02193398 13.16796875 44.65820312 C13.10509464 30.97537168 12.22129979 19.21714178 2.421875 8.8671875 C-4.99693706 1.93011648 -13.25680121 -0.8018536 -23.3671875 -0.56640625 C-33.45799263 0.30924213 -40.60028628 4.66567845 -47.453125 11.9296875 Z " fill="#080806" transform="translate(184.203125,58.3203125)"/>
</svg>
