<?xml version="1.0" encoding="UTF-8"?>
<!-- Generator: visioncortex VTracer 0.6.12 -->
<svg version="1.1" xmlns="http://www.w3.org/2000/svg" width="283" height="283">
<path d="M0 0 C93.39 0 186.78 0 283 0 C283 93.39 283 186.78 283 283 C189.61 283 96.22 283 0 283 C0 189.61 0 96.22 0 0 Z " fill="#FEFEFE" transform="translate(0,0)"/>
<path d="M0 0 C-0.06864258 0.41604492 -0.06864258 0.41604492 -0.41601562 2.52148438 C-2.05632682 14.47419023 -3.38480404 27.52622369 4.18798828 37.70361328 C12.64363691 47.87431579 22.82840993 56.59634737 33 65 C45.0472361 59.30963932 62.16739877 44.35812482 66.8614502 31.67181396 C69.42900641 21.38916119 68.43855129 10.39017265 67 0 C72.63834168 1.31797673 77.98519891 2.96897342 83.40234375 5.00390625 C84.16551407 5.28725327 84.92868439 5.57060028 85.71498108 5.86253357 C87.31148357 6.45635518 88.90721598 7.052251 90.50219727 7.65014648 C92.95325856 8.56840373 95.40707253 9.47899112 97.86132812 10.38867188 C99.41683337 10.96830284 100.97217792 11.54836525 102.52734375 12.12890625 C103.2626683 12.40182999 103.99799286 12.67475372 104.75559998 12.95594788 C109.88439992 14.88439992 109.88439992 14.88439992 111 16 C110.89388776 25.04042827 109.48766992 33.87207819 107.81674194 42.73486328 C107.13519717 46.35631372 106.4806065 49.98259102 105.828125 53.609375 C105.75667015 54.00626526 105.75667015 54.00626526 105.39506531 56.01477051 C102.92309494 69.89560807 100.80749528 83.8393543 98.62866211 97.76855469 C98.46138611 98.82991638 98.29411011 99.89127808 98.12176514 100.98480225 C97.80485969 102.99561852 97.49073281 105.0068752 97.17974854 107.01861572 C97.03881775 107.9109491 96.89788696 108.80328247 96.75268555 109.72265625 C96.63088425 110.50390869 96.50908295 111.28516113 96.3835907 112.09008789 C96 114 96 114 95 116 C54.41 116 13.82 116 -28 116 C-30.31 101.81 -32.62 87.62 -35 73 C-38.94392333 48.93179038 -38.94392333 48.93179038 -39.89111328 43.17651367 C-40.39493713 40.11399456 -40.89686036 37.05116901 -41.3984375 33.98828125 C-41.54630707 33.09264969 -41.69417664 32.19701813 -41.8465271 31.27424622 C-42.67676052 26.19235785 -43.39421825 21.11364115 -44 16 C-33.50698596 11.76221989 -22.99672009 7.57040159 -12.4375 3.5 C-11.5400708 3.15001953 -10.6426416 2.80003906 -9.71801758 2.43945312 C-8.88165771 2.11912109 -8.04529785 1.79878906 -7.18359375 1.46875 C-6.81520386 1.32663086 -6.81520386 1.32663086 -4.95092773 0.60742188 C-3 0 -3 0 0 0 Z " fill="#F0C5DE" transform="translate(107,139)"/>
<path d="M0 0 C0.39602417 0.00414917 0.39602417 0.00414917 2.40014648 0.02514648 C13.20424969 0.334906 21.42486817 3.94860431 29.25 11.4375 C40.80465119 24.07539974 40.94474449 38.32546476 40.43798828 54.62060547 C39.64610776 66.48647235 33.52035111 74.82718585 24.875 82.5625 C20.976269 85.34730785 17.14506342 87.4375 12.25 87.4375 C12.40082031 88.70078125 12.55164063 89.9640625 12.70703125 91.265625 C14.03117501 107.82371253 8.54795603 119.58197414 0.99951172 134.04931641 C-1.65884722 139.19761468 -4.10277784 144.44230377 -6.5625 149.6875 C-7.37973074 151.40189115 -8.19854392 153.11552963 -9.01953125 154.828125 C-9.35573486 155.52969727 -9.69193848 156.23126953 -10.03833008 156.95410156 C-10.27318115 157.44362305 -10.50803223 157.93314453 -10.75 158.4375 C-12.98217773 158.44335938 -12.98217773 158.44335938 -15.75 157.4375 C-17.60180891 154.94894699 -18.77706863 152.16814111 -20.03515625 149.34375 C-20.41812363 148.5230603 -20.801091 147.70237061 -21.19566345 146.85681152 C-22.41883359 144.2247526 -23.61574828 141.58165979 -24.8125 138.9375 C-25.62136149 137.18672036 -26.43189047 135.43671009 -27.24414062 133.6875 C-31.02358649 125.52245025 -31.02358649 125.52245025 -32.73027039 121.64006042 C-33.75 119.4375 -33.75 119.4375 -34.87776184 117.49726868 C-39.10397338 109.75026312 -38.34772122 101.05182536 -38.31640625 92.48046875 C-38.32165075 90.72845634 -38.32793023 88.97644675 -38.33518982 87.22444153 C-38.34556289 83.56217107 -38.34107912 79.90028988 -38.32641602 76.23803711 C-38.30926068 71.57452725 -38.33269906 66.91225334 -38.36790562 62.24888134 C-38.39000751 58.63255345 -38.38840698 55.01651525 -38.3801403 51.40014076 C-38.37932723 49.68236246 -38.38606583 47.96456149 -38.40091133 46.24684715 C-38.50534004 31.97514708 -36.3788396 21.21790367 -26.08203125 10.5625 C-22.88034798 7.64505327 -19.63835524 5.3386331 -15.75 3.4375 C-14.69554687 2.90898438 -13.64109375 2.38046875 -12.5546875 1.8359375 C-8.38035715 0.08156507 -4.48428958 -0.06064368 0 0 Z " fill="#F6BCA6" transform="translate(153.75,35.5625)"/>
<path d="M0 0 C2 2 2 2 3.6875 5.375 C5.96277816 9.41993896 8.68742847 11.37160162 13 13 C15.36878372 13.54380638 17.56672495 13.8013653 20 14 C20.67442665 25.07183753 18.60567433 32.51178317 11.69140625 41.2109375 C3.67635076 49.68875601 -6.98747728 50.21780212 -18 51 C-17.67 52.32 -17.34 53.64 -17 55 C-14.03 55.33 -11.06 55.66 -8 56 C-6.66313471 71.704506 -9.68891231 82.31816101 -16.875 96.1875 C-17.72874258 97.91690513 -18.57902323 99.64802373 -19.42578125 101.38085938 C-25.56245996 113.78122998 -25.56245996 113.78122998 -28 115 C-50.17943038 73.07602648 -50.17943038 73.07602648 -46.7722168 55.9375 C-45.40298036 52.50207149 -42.97943237 51.11962127 -40 49 C-31.91143349 38.99527413 -32.97830617 26.1919321 -33 14 C-32.40574219 13.99589111 -31.81148437 13.99178223 -31.19921875 13.98754883 C-28.46518555 13.95433011 -25.73329856 13.88366064 -23 13.8125 C-22.06542969 13.80669922 -21.13085938 13.80089844 -20.16796875 13.79492188 C-13.61402895 13.58867901 -9.00711072 12.36942749 -4 8 C-2.34375 5.76171875 -2.34375 5.76171875 -1.5 3.6875 C-1.005 2.470625 -0.51 1.25375 0 0 Z " fill="#FDFDFD" transform="translate(168,69)"/>
<path d="M0 0 C0.39602417 0.00414917 0.39602417 0.00414917 2.40014648 0.02514648 C13.20424969 0.334906 21.42486817 3.94860431 29.25 11.4375 C40.80465119 24.07539974 40.94474449 38.32546476 40.43798828 54.62060547 C39.64610776 66.48647235 33.52035111 74.82718585 24.875 82.5625 C20.976269 85.34730785 17.14506342 87.4375 12.25 87.4375 C12.40082031 88.70078125 12.55164063 89.9640625 12.70703125 91.265625 C14.03117501 107.82371253 8.54795603 119.58197414 0.99951172 134.04931641 C-1.65884722 139.19761468 -4.10277784 144.44230377 -6.5625 149.6875 C-7.37973074 151.40189115 -8.19854392 153.11552963 -9.01953125 154.828125 C-9.35573486 155.52969727 -9.69193848 156.23126953 -10.03833008 156.95410156 C-10.27318115 157.44362305 -10.50803223 157.93314453 -10.75 158.4375 C-12.98217773 158.44335938 -12.98217773 158.44335938 -15.75 157.4375 C-17.60180891 154.94894699 -18.77706863 152.16814111 -20.03515625 149.34375 C-20.41812363 148.5230603 -20.801091 147.70237061 -21.19566345 146.85681152 C-22.41883359 144.2247526 -23.61574828 141.58165979 -24.8125 138.9375 C-25.62136149 137.18672036 -26.43189047 135.43671009 -27.24414062 133.6875 C-31.02358649 125.52245025 -31.02358649 125.52245025 -32.73027039 121.64006042 C-33.75 119.4375 -33.75 119.4375 -34.87776184 117.49726868 C-39.10397338 109.75026312 -38.34772122 101.05182536 -38.31640625 92.48046875 C-38.32165075 90.72845634 -38.32793023 88.97644675 -38.33518982 87.22444153 C-38.34556289 83.56217107 -38.34107912 79.90028988 -38.32641602 76.23803711 C-38.30926068 71.57452725 -38.33269906 66.91225334 -38.36790562 62.24888134 C-38.39000751 58.63255345 -38.38840698 55.01651525 -38.3801403 51.40014076 C-38.37932723 49.68236246 -38.38606583 47.96456149 -38.40091133 46.24684715 C-38.50534004 31.97514708 -36.3788396 21.21790367 -26.08203125 10.5625 C-22.88034798 7.64505327 -19.63835524 5.3386331 -15.75 3.4375 C-14.69554687 2.90898438 -13.64109375 2.38046875 -12.5546875 1.8359375 C-8.38035715 0.08156507 -4.48428958 -0.06064368 0 0 Z M-28.1875 21.375 C-32.96081469 30.73069679 -33.35311279 40.26856121 -33.53515625 50.58203125 C-33.54987913 51.35307379 -33.56460201 52.12411633 -33.57977104 52.91852379 C-33.65376773 57.01730968 -33.70687925 61.11582399 -33.74536133 65.21508789 C-33.780521 68.5399702 -33.85630156 71.85978666 -33.97094727 75.18286133 C-34.74475876 98.13553861 -32.22515465 114.45452076 -20.45797729 134.42636108 C-17.89189392 138.95032843 -15.79847589 143.66127458 -13.75 148.4375 C-10.89640921 145.73663713 -9.45024734 143.12001698 -7.75390625 139.5546875 C-7.19509766 138.38679687 -6.63628906 137.21890625 -6.06054688 136.015625 C-5.47782064 134.78127074 -4.89513862 133.54689561 -4.3125 132.3125 C-3.73427878 131.10129747 -3.15550777 129.89035726 -2.57617188 128.6796875 C-1.45752679 126.33169136 -0.34839339 123.97913646 0.75048828 121.62182617 C1.65018057 119.71126178 2.5734611 117.81116836 3.54248047 115.93481445 C6.42683356 110.16546929 6.74396518 105.26970279 6.5 98.875 C6.48195312 97.96169922 6.46390625 97.04839844 6.4453125 96.10742188 C6.39874134 93.88364918 6.32702151 91.66042635 6.25 89.4375 C3.28 89.1075 0.31 88.7775 -2.75 88.4375 C-3.08 87.1175 -3.41 85.7975 -3.75 84.4375 C-2.615625 84.33953125 -1.48125 84.2415625 -0.3125 84.140625 C10.84195001 83.07576399 18.8551861 81.64576248 27.25 73.4375 C33.8798152 64.56713783 34.61376415 56.47321286 34.625 45.625 C34.63724609 45.00850586 34.63724609 45.00850586 34.69921875 41.88867188 C34.72298317 34.47021346 34.04251031 28.86754499 30.25 22.4375 C29.79238281 21.63957031 29.33476562 20.84164062 28.86328125 20.01953125 C23.642009 12.91671945 16.01121047 7.2465554 7.25 5.4375 C-8.44043679 3.80391982 -18.27918351 9.43420834 -28.1875 21.375 Z " fill="#090808" transform="translate(153.75,35.5625)"/>
<path d="M0 0 C0.6909375 0.25523438 1.381875 0.51046875 2.09375 0.7734375 C12.9417845 5.4656429 21.25282495 15.28100546 25.84936523 25.97631836 C28.08346277 31.91529977 28.36769029 37.26508039 28.1875 43.5625 C28.18073242 44.01915039 28.18073242 44.01915039 28.14648438 46.33007812 C28.11155315 48.55403259 28.06251586 50.77667952 28 53 C25.36 53 22.72 53 20 53 C19.98130859 52.55269531 19.98130859 52.55269531 19.88671875 50.2890625 C19.14932654 36.72682933 16.48438406 24.74499726 6.1875 15.125 C-3.45356623 7.27891155 -14.60376717 5.91155915 -26.66552734 6.68310547 C-34.86018715 7.79549497 -43.07157491 12.81039692 -48.5390625 18.90234375 C-53.38787787 25.86441288 -57.08026145 33.32638723 -57.20532227 41.84838867 C-57.22526749 43.0494072 -57.24521271 44.25042572 -57.26576233 45.48783875 C-57.28247482 46.78478165 -57.29918732 48.08172455 -57.31640625 49.41796875 C-57.33698293 50.7589023 -57.35797959 52.09982946 -57.37937927 53.44075012 C-57.43452627 56.96701889 -57.48396794 60.49334548 -57.53222656 64.01971436 C-57.5824955 67.61931493 -57.63815339 71.21883173 -57.69335938 74.81835938 C-57.80085071 81.87883352 -57.90231565 88.93938282 -58 96 C-60.70879335 97.35439668 -63.00933268 97.06501451 -66 97 C-66.1165243 88.60200621 -66.20503078 80.20435754 -66.25906086 71.8057518 C-66.28500997 67.90471322 -66.32013316 64.00423298 -66.37719727 60.10351562 C-66.43204966 56.32980213 -66.46153056 52.55662115 -66.47438622 48.78253937 C-66.48353187 47.35217164 -66.50138783 45.92182873 -66.52865028 44.49169159 C-66.76754142 31.42456929 -63.83530939 21.31172186 -55.23046875 11.25390625 C-40.8794121 -3.24794959 -18.93991945 -7.26030246 0 0 Z " fill="#F7BCA5" transform="translate(174,30)"/>
</svg>
